# xmcd CD database file
#
# Track frame offsets:
#	182
#	17027
#	33350
#	54887
#	74667
#	91405
#	113827
#	134827
#	156107
#	185635
#
# Disc length: 2680 seconds
#
# Revision: 23
# Processed by: cddbd v1.5.2PL0 Copyright (c) Steve Scherf et al.
# Submitted via: CDex 1.51
#
DISCID=8a0a760a
DTITLE=Madonna - Music
DYEAR=2000
DGENRE=Pop
TTITLE0=Music
TTITLE1=Impressive Instant
TTITLE2=Runaway Lover
TTITLE3=I Deserve It
TTITLE4=Amazing
TTITLE5=Nobody's Perfect
TTITLE6=Don't Tell Me
TTITLE7=What It Feels Like For A Girl
TTITLE8=Paradise (Not For Me)
TTITLE9=Gone
EXTD=YEAR: 2000
EXTT0=
EXTT1=
EXTT2=
EXTT3=
EXTT4=
EXTT5=
EXTT6=
EXTT7=
EXTT8=
EXTT9=
PLAYORDER=
